<svg id="Flat" height="512" viewBox="0 0 64 64" width="512" xmlns="http://www.w3.org/2000/svg"><path d="m3 31h58v4h-58z" fill="#4891d3"/><path d="m10 31 3-12h5l2-6h5l7-10 4 9 9 6v5l5 8z" fill="#aae1f9"/><path d="m10 35 6 7v7h5l1 7 6 5 2-10 2 6 5 2 4-8v-8l5-1 4-7" fill="#57b7eb"/><g fill="#4891d3"><path d="m30 35 1 7 4 7 2-8 3-3v-3"/><path d="m26 17 1 7 3 1v6h-13.04l1.04-5 4-1z"/><path d="m45 23v-5l-9-6-4-9 2 16 5 6v6h11z"/><path d="m10 35 6 7v7h5l1 7 6 5-3-11v-5l-4-3v-7"/></g><path d="m7 31h54a0 0 0 0 1 0 0v2a0 0 0 0 1 0 0h-52a2 2 0 0 1 -2-2 0 0 0 0 1 0 0z" fill="#57b7eb"/></svg>