<svg height="512" viewBox="0 0 64 64" width="512" xmlns="http://www.w3.org/2000/svg"><g id="Flat"><g id="Stroke_copy_2" data-name="Stroke copy 2"><g><path d="m37 23h-10a25.428 25.428 0 0 0 -2.683-11.367l-1.317-2.633h18l-1.317 2.633a25.428 25.428 0 0 0 -2.683 11.367z" fill="#cc5144"/><path d="m35.813 20a5.989 5.989 0 0 1 -5.769-4.417 4.873 4.873 0 0 0 1.956.417 4.991 4.991 0 0 0 4.1-2.152 2.854 2.854 0 0 0 2.85-.6c.226-.545.466-1.085.73-1.615l1.32-2.633h-18l1.317 2.633a25.428 25.428 0 0 1 2.683 11.367h10a25.428 25.428 0 0 1 .179-3z" fill="#ad4038"/><path d="m33.684 24h-.014a1 1 0 0 1 -.986-1.013c.02-1.557.073-2.937.162-4.219a1 1 0 1 1 2 .138c-.086 1.244-.137 2.588-.157 4.107a1 1 0 0 1 -1.005.987z" fill="#f8664f"/><path d="m30.31 24a1 1 0 0 1 -1-.987c-.029-2.118-.122-4.005-.287-5.769a1 1 0 1 1 1.992-.186c.169 1.817.266 3.757.3 5.929a1 1 0 0 1 -.991 1.013z" fill="#f8664f"/><path d="m32.686 23h2c.015-1.116.047-2.136.1-3.092a5.92 5.92 0 0 1 -1.96-.728c-.073 1.167-.119 2.414-.137 3.807-.005.004-.003.013-.003.013z" fill="#cc5144"/><path d="m29.024 17.244c.165 1.76.258 3.643.286 5.756h2s0-.009 0-.013c-.026-1.955-.111-3.716-.25-5.375a5.985 5.985 0 0 1 -.8-1.421.978.978 0 0 0 -1.242 1.053z" fill="#cc5144"/><path d="m48 6a1.99 1.99 0 0 0 -1.383.56 2.971 2.971 0 0 0 -4.942-.435 1.956 1.956 0 0 0 -2.058.435 2.919 2.919 0 0 0 -3.517-1.408 4.972 4.972 0 0 0 -8.079-.152h-.021a2.982 2.982 0 0 0 -2.325 1.125 1.956 1.956 0 0 0 -2.058.435 2.975 2.975 0 0 0 -5.234 0 2 2 0 1 0 0 2.88 2.989 2.989 0 0 0 2.617 1.56 2.939 2.939 0 0 0 1.019-.187c0 .063-.019.123-.019.187a2.994 2.994 0 0 0 5.428 1.75 2.455 2.455 0 0 0 2.51-.21 4.9 4.9 0 0 0 2.062.46 4.991 4.991 0 0 0 4.1-2.152 2.875 2.875 0 0 0 2.92-.648 2.983 2.983 0 0 0 5.836.675 3.015 3.015 0 0 0 1.761-1.435 2 2 0 1 0 1.383-3.44z" fill="#f89c8d"/><path d="m48.617 6.44a3.015 3.015 0 0 1 -1.761 1.431 2.983 2.983 0 0 1 -5.836-.671 2.875 2.875 0 0 1 -2.917.652 4.991 4.991 0 0 1 -4.103 2.148 4.9 4.9 0 0 1 -2.062-.46 2.455 2.455 0 0 1 -2.51.21 2.994 2.994 0 0 1 -5.428-1.75c0-.064.015-.124.019-.187a2.939 2.939 0 0 1 -1.019.187 2.989 2.989 0 0 1 -2.617-1.56 1.987 1.987 0 0 1 -3.09-.411 2.02 2.02 0 0 0 -.293-.029 2 2 0 1 0 1.383 3.44 2.989 2.989 0 0 0 2.617 1.56 2.939 2.939 0 0 0 1.019-.187c0 .063-.019.123-.019.187a2.994 2.994 0 0 0 5.428 1.75 2.455 2.455 0 0 0 2.51-.21 4.9 4.9 0 0 0 2.062.46 4.991 4.991 0 0 0 4.1-2.152 2.875 2.875 0 0 0 2.92-.648 2.983 2.983 0 0 0 5.836.675 3.015 3.015 0 0 0 1.761-1.435 1.993 1.993 0 0 0 3.09-2.469 1.991 1.991 0 0 1 -1.09-.531z" fill="#f8664f"/><path d="m40 24h-16a50.434 50.434 0 0 1 -13.707 34.564l-2.293 2.436h48l-2.293-2.436a50.434 50.434 0 0 1 -13.707-34.564z" fill="#fcbc04"/><path d="m50.774 55.145-16.107.448a10 10 0 0 1 -9.684-13.393l1.017-2.815v3.553a2.063 2.063 0 0 0 4.121.128l.558-8.934a1 1 0 0 1 1.947-.254l.85 2.551a1.656 1.656 0 0 0 3.185-.9l-.8-3.46a1 1 0 0 1 1.764-.839l.952 1.225a1.4 1.4 0 0 0 1.108.545 1.374 1.374 0 0 0 1.052-.489q-.243-1.421-.406-2.857a17.1 17.1 0 0 1 -1.321-5.507l-.01-.147h-15a50.434 50.434 0 0 1 -13.707 34.564l-2.293 2.436h48l-2.293-2.436c-1.033-1.098-2.007-2.242-2.933-3.419z" fill="#e59730"/><g fill="#e59730"><g><path d="m43.1 59.176a1 1 0 0 1 -.9-.572 63.725 63.725 0 0 1 -3.525-9.322 1 1 0 1 1 1.918-.563 61.813 61.813 0 0 0 3.407 9.029 1 1 0 0 1 -.9 1.428z"/><path d="m20.9 59.174a1 1 0 0 1 -.9-1.428 63.505 63.505 0 0 0 4-11.121 1 1 0 1 1 1.935.505 65.384 65.384 0 0 1 -4.135 11.47 1 1 0 0 1 -.9.574z"/></g><g><path d="m29.346 59.806a1.047 1.047 0 0 1 -.157-.012 1 1 0 0 1 -.833-1.143l.039-.242c.425-2.713.8-5.72 1.116-8.938a1 1 0 1 1 1.99.2c-.319 3.256-.7 6.3-1.131 9.052l-.038.242a1 1 0 0 1 -.986.841z"/><path d="m36.8 60.76a1 1 0 0 1 -.986-.844l-.188-1.2c-.735-4.687-1.308-10.091-1.7-16.062a1 1 0 0 1 2-.132c.391 5.912.957 11.256 1.682 15.884l.188 1.2a1 1 0 0 1 -.832 1.143 1.047 1.047 0 0 1 -.164.011z"/></g></g><path d="m24.39 46.07a9.874 9.874 0 0 0 .84 3.54 63.171 63.171 0 0 1 -3.43 8.99 1 1 0 0 1 -.9.57 1.07 1.07 0 0 1 -.43-.09 1.008 1.008 0 0 1 -.48-1.33 62.756 62.756 0 0 0 4-11.12.962.962 0 0 1 .4-.56z" fill="#e59730"/><path d="m29.01 54.03a9.256 9.256 0 0 0 1.89.94c-.17 1.3-.34 2.55-.53 3.75l-.04.24a1.006 1.006 0 0 1 -.98.85.777.777 0 0 1 -.16-.02.984.984 0 0 1 -.83-1.14l.03-.24c.22-1.38.43-2.85.62-4.38z" fill="#e59730"/><path d="m37.61 58.41.18 1.19a1 1 0 0 1 -.83 1.15.808.808 0 0 1 -.16.01 1 1 0 0 1 -.98-.84l-.19-1.2c-.16-1.01-.31-2.06-.45-3.14l2.01-.06c.13.99.27 1.96.42 2.89z" fill="#e59730"/><path d="m43.52 59.08a.924.924 0 0 1 -.42.1 1.01 1.01 0 0 1 -.91-.58c-.49-1.03-.95-2.09-1.39-3.18l2.14-.06c.33.81.69 1.61 1.06 2.39a1 1 0 0 1 -.48 1.33z" fill="#e59730"/><g fill="#b27525"><g><path d="m43.52 59.08a.924.924 0 0 1 -.42.1 1.01 1.01 0 0 1 -.91-.58c-.49-1.03-.95-2.09-1.39-3.18l2.14-.06c.33.81.69 1.61 1.06 2.39a1 1 0 0 1 -.48 1.33z"/><path d="m25.23 49.61a63.171 63.171 0 0 1 -3.43 8.99 1 1 0 0 1 -.9.57 1.07 1.07 0 0 1 -.43-.09 1.008 1.008 0 0 1 -.48-1.33 62.756 62.756 0 0 0 4-11.12.962.962 0 0 1 .4-.56 9.874 9.874 0 0 0 .84 3.54z"/></g><g><path d="m30.9 54.97c-.17 1.3-.34 2.55-.53 3.75l-.04.24a1.006 1.006 0 0 1 -.98.85.777.777 0 0 1 -.16-.02.984.984 0 0 1 -.83-1.14l.03-.24c.22-1.38.43-2.85.62-4.38a9.256 9.256 0 0 0 1.89.94z"/><path d="m37.79 59.6a1 1 0 0 1 -.83 1.15.808.808 0 0 1 -.16.01 1 1 0 0 1 -.98-.84l-.19-1.2c-.16-1.01-.31-2.06-.45-3.14l2.01-.06c.13.99.27 1.96.42 2.89z"/></g></g><path d="m41.926 29.949a17.1 17.1 0 0 1 -1.916-6.8l-.01-.149h-16a30.374 30.374 0 0 1 -2.06 9.6l-.334.851a1.576 1.576 0 0 0 .969 2.07 1.575 1.575 0 0 0 1.967-.926l.525-1.357a1 1 0 0 1 1.933.362v8.335a2.062 2.062 0 0 0 2.062 2.065 2.063 2.063 0 0 0 2.059-1.934l.558-8.934a1 1 0 0 1 1.947-.254l.85 2.551a1.655 1.655 0 0 0 2.095 1.047 1.656 1.656 0 0 0 1.09-1.943l-.8-3.46a1 1 0 0 1 1.764-.839l.952 1.225a1.4 1.4 0 0 0 1.108.541 1.4 1.4 0 0 0 1.241-2.051z" fill="#f89c8d"/><g fill="#f8664f"><path d="m39.954 28.978a2.166 2.166 0 0 0 -1.811-.978h-7.143a5 5 0 0 1 -5-5h-2a30.374 30.374 0 0 1 -2.06 9.6l-.334.851a1.576 1.576 0 1 0 2.936 1.149l.525-1.357a1 1 0 0 1 1.933.357v8.335a2.063 2.063 0 0 0 4.121.128l.558-8.934a1 1 0 0 1 1.947-.254l.85 2.551a1.656 1.656 0 0 0 3.185-.9l-.8-3.46a1 1 0 0 1 1.764-.839l.952 1.225a1.4 1.4 0 0 0 2.478-1.152 3 3 0 0 1 -2.101-1.322z"/><path d="m47.475 21.3a1 1 0 0 1 -.8-.4 5.2 5.2 0 0 0 -5.431-1.928 1 1 0 1 1 -.486-1.94 7.2 7.2 0 0 1 7.515 2.668 1 1 0 0 1 -.8 1.6z"/><path d="m47.8 31.6a1 1 0 0 1 -.988-.859 16.066 16.066 0 0 0 -4.517-9.034 1 1 0 0 1 1.414-1.414 18.077 18.077 0 0 1 5.081 10.166 1 1 0 0 1 -.849 1.131.982.982 0 0 1 -.141.01z"/><path d="m52.706 20.95a1 1 0 0 1 -.989-.859 4.788 4.788 0 0 0 -4.717-4.091 1 1 0 0 1 0-2 6.8 6.8 0 0 1 6.7 5.808 1.006 1.006 0 0 1 -.991 1.142z"/><circle cx="51" cy="24" r="1"/><circle cx="52" cy="29" r="1"/><circle cx="48" cy="35" r="1"/><path d="m16.525 21.3a1 1 0 0 1 -.8-1.6 7.2 7.2 0 0 1 7.516-2.668 1 1 0 0 1 -.486 1.94 5.2 5.2 0 0 0 -5.429 1.928 1 1 0 0 1 -.801.4z"/><path d="m16.2 31.6a.982.982 0 0 1 -.143-.01 1 1 0 0 1 -.849-1.131 18.077 18.077 0 0 1 5.083-10.166 1 1 0 0 1 1.414 1.414 16.066 16.066 0 0 0 -4.517 9.034 1 1 0 0 1 -.988.859z"/><path d="m11.294 20.95a1.006 1.006 0 0 1 -.991-1.142 6.8 6.8 0 0 1 6.697-5.808 1 1 0 0 1 0 2 4.788 4.788 0 0 0 -4.717 4.091 1 1 0 0 1 -.989.859z"/><circle cx="13" cy="24" r="1"/><circle cx="12" cy="29" r="1"/><circle cx="16" cy="35" r="1"/></g><path d="m3 59.333 2-1.333a5.409 5.409 0 0 1 6 0 5.409 5.409 0 0 0 6 0 5.409 5.409 0 0 1 6 0 5.409 5.409 0 0 0 6 0 5.409 5.409 0 0 1 6 0 5.409 5.409 0 0 0 6 0 5.409 5.409 0 0 1 6 0 5.409 5.409 0 0 0 6 0 5.409 5.409 0 0 1 6 0l2 1.333v1.667h-58z" fill="#84d2f4"/><path d="m53 60a5.409 5.409 0 0 1 -6 0 5.409 5.409 0 0 0 -6 0 5.409 5.409 0 0 1 -6 0 5.409 5.409 0 0 0 -6 0 5.409 5.409 0 0 1 -6 0 5.409 5.409 0 0 0 -6 0 5.409 5.409 0 0 1 -6 0 5.409 5.409 0 0 0 -6 0l-1.5 1h57l-1.5-1a5.409 5.409 0 0 0 -6 0z" fill="#57b7eb"/></g></g></g></svg>